<svg width="1968" height="703" viewBox="0 0 1968 703" fill="none" xmlns="http://www.w3.org/2000/svg">
<g opacity="0.25" clip-path="url(#clip0_1_2)">
<path d="M334.178 87.2783V139.077H417.712V187.227H334.178V243.403H428.655V293.378H271.801V37.3038H428.655V87.2783H334.178ZM608.132 245.227H689.841V293.378H545.754V37.3038H608.132V245.227ZM917.303 295.933C893.229 295.933 871.099 290.339 850.914 279.152C830.972 267.965 815.044 252.401 803.129 232.46C791.455 212.276 785.618 189.659 785.618 164.611C785.618 139.563 791.455 117.069 803.129 97.1275C815.044 77.1861 830.972 61.6224 850.914 50.4358C871.099 39.2492 893.229 33.656 917.303 33.656C941.379 33.656 963.388 39.2492 983.33 50.4358C1003.51 61.6224 1019.32 77.1861 1030.75 97.1275C1042.42 117.069 1048.26 139.563 1048.26 164.611C1048.26 189.659 1042.42 212.276 1030.75 232.46C1019.08 252.401 1003.27 267.965 983.33 279.152C963.388 290.339 941.379 295.933 917.303 295.933ZM917.303 239.026C937.731 239.026 954.025 232.217 966.184 218.598C978.586 204.98 984.788 186.984 984.788 164.611C984.788 141.995 978.586 123.999 966.184 110.624C954.025 97.0057 937.731 90.1965 917.303 90.1965C896.634 90.1965 880.097 96.8842 867.694 110.259C855.536 123.634 849.455 141.752 849.455 164.611C849.455 187.227 855.536 205.345 867.694 218.963C880.097 232.338 896.634 239.026 917.303 239.026Z" fill="#FAFAFA"/>
<path d="M1100.66 407.455V663.53H1038.29V558.107H941.255V663.53H878.879V407.455H941.255V507.768H1038.29V407.455H1100.66ZM1284.67 407.455V663.53H1222.3V407.455H1284.67ZM1696.48 407.455V663.53H1634.1V509.957L1576.83 663.53H1526.49L1468.86 509.592V663.53H1406.48V407.455H1480.17L1552.03 584.738L1623.16 407.455H1696.48Z" fill="#AC070B"/>
<path d="M1718.72 0H1135.07V333.513H1718.72V0Z" fill="#262626"/>
<path d="M832.83 364.777H249.185V698.289H832.83V364.777Z" fill="#262626"/>
</g>
<defs>
<clipPath id="clip0_1_2">
<rect width="1967.49" height="703" fill="white" transform="translate(0.269531)"/>
</clipPath>
</defs>
</svg>
